<svg width="248" height="183" viewBox="0 0 248 183" fill="none" xmlns="http://www.w3.org/2000/svg">
<circle cx="123" cy="89" r="83" stroke="#FBBCCA" stroke-width="12"/>
<circle cx="128" cy="74" r="39" stroke="#F26E40" stroke-width="8" stroke-linecap="round" stroke-linejoin="round"/>
<path d="M19.064 74C10.6086 64.0272 -0.937446 44.0817 11.3769 34.4013C22.9114 25.3339 65.8702 44.3743 81 51.2785" stroke="#00BCD4" stroke-width="12" stroke-linecap="round" stroke-linejoin="round"/>
<path d="M196.919 163.515C210.846 164.931 230.706 163.709 232.249 148.528C234.525 126.127 190.924 104.842 176.134 96.0674" stroke="#00BCD4" stroke-width="12" stroke-linecap="round" stroke-linejoin="round"/>
<path d="M124.264 62.5626L149.203 85.2182L140.646 94.4207L116.241 71.1899C115.191 70.2136 112.834 67.4852 111.274 64.4258C109.714 61.3664 109.209 58.7516 110.279 57.6013C111.349 56.451 113.993 56.7651 117.158 58.0991C120.322 59.4331 123.214 61.5863 124.264 62.5626Z" fill="white"/>
</svg>
